<svg width="47" height="43" viewBox="0 0 47 43" fill="none" xmlns="http://www.w3.org/2000/svg">
<path d="M28.5294 14.0198C27.12 12.5267 25.6512 11.2278 24.1231 10.1229C22.5951 9.01805 21.1634 8.18941 19.8282 7.63698C18.4929 7.08455 17.269 6.81953 16.1563 6.84193C15.0436 6.86432 14.1757 7.21146 13.5526 7.88333C13.4042 8.03264 13.2781 8.20061 13.1743 8.38724C13.0704 8.57387 12.9963 8.71944 12.9517 8.82396C12.9072 8.92847 12.8479 9.1151 12.7737 9.38385C12.6995 9.6526 12.6476 9.82431 12.6179 9.89896L4.33953 37.3115L4.85137 37.849C4.27277 38.2521 3.75723 38.7224 3.30473 39.2599C2.85224 39.7974 2.45538 40.2378 2.11415 40.5812C1.77293 40.9247 1.36494 41.1635 0.890196 41.2979C0.786345 41.3278 0.656531 41.4286 0.500755 41.6003C0.344978 41.772 0.26709 41.925 0.26709 42.0594C0.26709 42.3281 0.400613 42.5521 0.667658 42.7312C0.934703 42.9104 1.23142 43 1.55781 43C1.97321 43 2.37378 42.832 2.75951 42.4961C3.14525 42.1602 3.53469 41.7309 3.92784 41.2083C4.32099 40.6858 4.60658 40.3424 4.78461 40.1781C5.17034 39.8347 5.60058 39.5062 6.07533 39.1927L6.65393 39.7526L32.9579 30.7719C33.5365 30.5927 33.9816 30.324 34.2931 29.9656C34.9162 29.2937 35.2389 28.3643 35.2612 27.1773C35.2834 25.9904 35.0349 24.6839 34.5157 23.2581C33.9964 21.8322 33.2212 20.3093 32.1901 18.6893C31.1591 17.0694 29.9388 15.5128 28.5294 14.0198ZM26.126 16.4609C28.3959 18.7901 30.1205 21.0185 31.3 23.1461C32.4794 25.2737 32.765 26.6734 32.1568 27.3453C31.5485 28.0172 30.2207 27.7708 28.1733 26.6062C26.126 25.4417 23.9748 23.7023 21.7197 21.388C19.435 19.0589 17.7029 16.8342 16.5235 14.7141C15.344 12.5939 15.0584 11.1905 15.6667 10.5036C16.275 9.83177 17.6065 10.0781 19.6613 11.2427C21.716 12.4073 23.8709 14.1467 26.126 16.4609ZM21.2524 25.7328C22.3354 26.7033 23.411 27.5543 24.4792 28.2859C24.494 28.3158 24.8649 29.0175 25.5919 30.3911L23.7226 31.0406C22.8324 29.3535 22.009 27.5842 21.2524 25.7328ZM13.6639 15.4755C13.9903 16.2071 14.4428 17.0955 15.0213 18.1406C15.4961 20.2906 16.2416 22.6198 17.2579 25.1281C18.2741 27.6365 19.3831 29.988 20.5848 32.1828L18.7377 32.8099C17.3432 30.212 16.1266 27.4909 15.0881 24.6466C14.0496 21.8023 13.4117 19.2903 13.1743 17.1104L13.6639 15.4755ZM11.0824 23.6724C12.1209 27.0168 13.5823 30.4509 15.4664 33.9745L13.6416 34.624C12.1729 31.7872 11.0157 29.122 10.17 26.6286L11.0824 23.6724ZM8.52324 31.8469C9.10184 33.2205 9.71753 34.5269 10.3703 35.7661L8.5455 36.4156C8.3378 36.0125 8.04108 35.3929 7.65535 34.5568L8.52324 31.8469ZM24.8798 0L25.9925 3.38177L23.1217 5.48698H26.6601L27.7505 8.86875L28.841 5.48698H32.357L29.5086 3.38177L30.6213 0.0223958L27.7505 2.10521L24.8798 0ZM18.6487 0L18.0479 3.06823L21.0966 3.67292L21.6975 0.604687L18.6487 0ZM38.6994 9.22708L41.1473 6.65156L44.3296 8.21927L42.6828 5.08385L45.153 2.55312L41.6591 3.15781L40.0124 0L39.5228 3.53854L36.0289 4.14323L39.2112 5.68854L38.6994 9.22708ZM37.876 14.7365L40.8357 16.7073L39.9011 20.1562L42.6605 17.9167L45.598 19.8875L44.3741 16.5281L47.1336 14.3333L43.5952 14.4901L42.349 11.1531L41.4366 14.5797L37.876 14.7365ZM36.6075 6.4276L29.9759 11.8922L30.7993 12.9L37.4309 7.43542L36.6075 6.4276ZM38.9219 16.9984L33.7368 16.5281L33.6033 17.8271L38.8106 18.2974L38.9219 16.9984ZM39.4338 23.2693L38.4768 26.2703L41.4366 27.2333L42.4158 24.2547L39.4338 23.2693Z" fill="#333333"/>
</svg>
