<svg width="53" height="53" viewBox="0 0 53 53" fill="none" xmlns="http://www.w3.org/2000/svg">
<path fill-rule="evenodd" clip-rule="evenodd" d="M26.5 0.375C12.0719 0.375 0.375 12.0719 0.375 26.5C0.375 40.9281 12.0719 52.625 26.5 52.625C40.9281 52.625 52.625 40.9281 52.625 26.5C52.625 12.0719 40.9281 0.375 26.5 0.375ZM31.7416 18.6791C32.1742 18.2312 32.4136 17.6313 32.4082 17.0085C32.4028 16.3858 32.153 15.7902 31.7127 15.3498C31.2724 14.9095 30.6767 14.6597 30.054 14.6543C29.4312 14.6489 28.8313 14.8883 28.3834 15.3209L18.8834 24.8209C18.4381 25.2663 18.188 25.8702 18.188 26.5C18.188 27.1298 18.4381 27.7337 18.8834 28.1791L28.3834 37.6791C28.8313 38.1118 29.4312 38.3511 30.054 38.3457C30.6767 38.3403 31.2724 38.0905 31.7127 37.6502C32.153 37.2099 32.4028 36.6142 32.4082 35.9915C32.4136 35.3687 32.1742 34.7688 31.7416 34.3209L23.9207 26.5L31.7416 18.6791Z" fill="#FFA266"/>
</svg>
