<svg width="14" height="18" viewBox="0 0 14 18" fill="none" xmlns="http://www.w3.org/2000/svg">
<path d="M7.00004 17.25C5.84224 16.2625 4.76905 15.1798 3.79171 14.0133C2.32504 12.2615 0.583375 9.65271 0.583375 7.16671C0.582739 5.89709 0.958757 4.65582 1.66384 3.59998C2.36893 2.54415 3.37139 1.72121 4.54435 1.23532C5.71732 0.749436 7.00806 0.622435 8.25323 0.870394C9.4984 1.11835 10.642 1.73013 11.5394 2.62829C12.1368 3.22308 12.6104 3.93045 12.9326 4.70947C13.2548 5.48849 13.4194 6.32368 13.4167 7.16671C13.4167 9.65271 11.675 12.2615 10.2084 14.0133C9.23103 15.1798 8.15784 16.2624 7.00004 17.25ZM7.00004 4.41671C6.2707 4.41671 5.57122 4.70644 5.0555 5.22217C4.53977 5.73789 4.25004 6.43737 4.25004 7.16671C4.25004 7.89606 4.53977 8.59553 5.0555 9.11125C5.57122 9.62698 6.2707 9.91671 7.00004 9.91671C7.72939 9.91671 8.42886 9.62698 8.94458 9.11125C9.46031 8.59553 9.75004 7.89606 9.75004 7.16671C9.75004 6.43737 9.46031 5.73789 8.94458 5.22217C8.42886 4.70644 7.72939 4.41671 7.00004 4.41671Z" fill="#CCCCCC"/>
</svg>
