<svg width="53" height="53" viewBox="0 0 53 53" fill="none" xmlns="http://www.w3.org/2000/svg">
<path fill-rule="evenodd" clip-rule="evenodd" d="M26.5 0.375C40.9281 0.375 52.625 12.0719 52.625 26.5C52.625 40.9281 40.9281 52.625 26.5 52.625C12.0719 52.625 0.375 40.9281 0.375 26.5C0.375 12.0719 12.0719 0.375 26.5 0.375ZM21.2584 18.6791C20.8258 18.2312 20.5864 17.6313 20.5918 17.0085C20.5972 16.3858 20.847 15.7902 21.2873 15.3498C21.7276 14.9095 22.3233 14.6597 22.946 14.6543C23.5688 14.6489 24.1687 14.8883 24.6166 15.3209L34.1166 24.8209C34.5619 25.2663 34.812 25.8702 34.812 26.5C34.812 27.1298 34.5619 27.7337 34.1166 28.1791L24.6166 37.6791C24.1687 38.1118 23.5688 38.3511 22.946 38.3457C22.3233 38.3403 21.7276 38.0905 21.2873 37.6502C20.847 37.2099 20.5972 36.6142 20.5918 35.9915C20.5864 35.3687 20.8258 34.7688 21.2584 34.3209L29.0793 26.5L21.2584 18.6791Z" fill="#FFA266"/>
</svg>
