<svg width="16" height="17" viewBox="0 0 16 17" fill="none" xmlns="http://www.w3.org/2000/svg">
<path d="M9.39767 0C5.74998 0 2.79493 3.07497 2.79493 6.86713C2.79305 8.11641 3.12046 9.34234 3.74157 10.4116L0.540376 13.7411L0.551518 13.7527C0.209837 14.0928 3.95279e-08 14.5757 3.95279e-08 15.1214C-0.00020629 16.1757 0.807366 17.0002 1.82003 17C2.3373 16.9998 2.79989 16.7845 3.13001 16.4343L3.13806 16.4427L6.44098 13.0072C7.35845 13.4863 8.37105 13.7353 9.39767 13.7343C13.0456 13.7343 16 10.6597 16 6.86713C16 3.07497 13.0454 0 9.39767 0ZM9.4377 11.034C7.15776 11.034 5.31091 9.11246 5.31091 6.74202C5.31091 4.372 7.15776 2.45006 9.4377 2.45006C11.7176 2.45006 13.5641 4.37178 13.5641 6.74202C13.5643 9.11246 11.7176 11.034 9.4377 11.034Z" fill="#CCCCCC"/>
</svg>
