<svg width="103" height="142" viewBox="0 0 103 142" fill="none" xmlns="http://www.w3.org/2000/svg">
<path d="M34.5954 90.5248C28.0268 85.8219 27.812 75.1997 27.3497 67.9427C27.0754 63.6364 25.8498 57.2756 27.4456 53.2542C33.6683 51.4885 34.6731 62.5667 32.5313 66.0606C34.2387 68.0943 34.4571 70.3306 35.2386 72.6748C36.3101 75.8873 36.4193 76.1516 38.9422 79.0464C42.1919 82.7755 46.0447 88.5832 46.6491 93.3395C42.9236 94.0417 36.0067 90.8062 34.5954 90.5248Z" fill="#C4714F"/>
<path d="M55.044 0L67.9034 33.7318L103 42.2682L74.8725 64.9146L77.5943 100.909L47.3505 81.1735L13.937 94.8833L23.3731 60.0394L0 32.5179L36.0747 30.7194L55.044 0Z" fill="#FFD77A"/>
<path d="M70.9771 60.5524C67.7638 61.4875 65.0541 64.0499 64.1039 67.1036C62.3686 72.676 66.0479 78.8245 64.2362 84.3752C62.6962 89.0902 57.2901 92.0614 52.0758 92.0068C51.4011 91.9995 50.7336 91.9522 50.0747 91.8758C45.3336 88.0206 37.799 83.8513 32.4075 84.1181C31.8056 83.7009 31.2183 83.2643 30.6503 82.8095C29.2718 79.021 25.7041 73.9833 22.1959 71.701C21.8756 70.9127 21.5807 70.1123 21.3416 69.2865C21.8234 65.7744 18.3747 61.2316 16.1212 59.3312C12.4455 56.2327 9.78191 55.0843 11.1277 60.6058C12.1506 64.803 13.8508 68.8208 15.7838 72.7039C15.9841 75.6533 21.3635 83.348 22.202 84.4685C29.2742 93.9181 43.5291 96.8189 50.2458 106.476C51.2142 107.869 54.8522 118.337 55.5354 118.517C55.7538 118.574 55.9783 118.616 56.1992 118.648C60.842 119.315 65.6123 119.179 70.2041 118.249C71.437 117.999 72.7876 117.601 73.4053 116.562C73.9417 115.66 73.7597 114.54 73.5097 113.531C72.5813 109.787 70.9152 106.107 71.1349 102.266C71.4698 96.3859 75.9876 91.5969 76.3602 85.7285C76.7315 79.8796 72.7791 73.9276 74.8518 68.4072C75.4852 66.7204 76.6647 65.1729 76.774 63.3854C76.9718 60.0831 73.449 59.8333 70.9771 60.5524Z" fill="#FFA266"/>
<path d="M76.7048 142L76.2898 113.973L51.4545 114.303L51.8634 142H76.7048Z" fill="#29105E"/>
<path d="M70.0208 63.2847C68.1654 64.5714 68.4481 69.3531 71.8568 68.8547C74.0302 68.537 75.2194 65.0819 75.7461 63.3829" fill="#FFC8A9"/>
</svg>
