<svg width="122" height="110" viewBox="0 0 122 110" fill="none" xmlns="http://www.w3.org/2000/svg">
<path d="M46.7843 58.1276L3.58838 94.1509L13.9066 106.62L57.1025 70.5963L46.7843 58.1276Z" fill="#29105E"/>
<path d="M44.8175 60.6703L54.2504 72.0679C54.794 72.7212 55.7623 72.8129 56.4131 72.2671L62.461 67.2236L51.0637 53.4517L45.0159 58.4951C44.3651 59.0409 44.2738 60.013 44.8175 60.6703Z" fill="#FFA266"/>
<path d="M1.08562 98.0064L9.64548 108.352C10.1376 108.946 10.84 109.177 11.213 108.862L14.6814 105.97L4.34369 93.4729L0.875296 96.3651C0.498297 96.6759 0.593539 97.4129 1.08562 98.0064Z" fill="#FFA266"/>
<path opacity="0.38" d="M62.9451 13.6659C49.4287 24.936 47.5754 45.07 58.806 58.6388C70.0327 72.2076 90.089 74.068 103.605 62.7979C117.122 51.5278 118.975 31.3897 107.748 17.8249C96.5178 4.25617 76.4575 2.39176 62.9451 13.6659Z" fill="#CBE7F6"/>
<path opacity="0.38" d="M69.5962 16.0519C61.4054 22.8841 60.2824 35.0865 67.0882 43.309C73.89 51.5315 86.0492 52.6589 94.24 45.8268C102.431 38.9946 103.554 26.7922 96.7481 18.5697C89.9422 10.3512 77.787 9.22374 69.5962 16.0519Z" fill="#CBE7F6"/>
<path opacity="0.38" d="M74.7115 41.7634C70.882 44.9583 70.3542 50.6631 73.5368 54.5115C76.7195 58.3558 82.4023 58.8856 86.2357 55.6907C90.0653 52.4957 90.5891 46.7909 87.4104 42.9426C84.2238 39.0942 78.541 38.5684 74.7115 41.7634Z" fill="#CBE7F6"/>
<path d="M58.941 8.82537C42.7657 22.3184 40.5434 46.4164 53.9844 62.6582C67.4215 78.9001 91.4343 81.1271 107.61 67.634C123.785 54.1409 126.007 30.043 112.57 13.8011C99.1251 -2.43679 75.1162 -4.66771 58.941 8.82537ZM62.9451 13.6657C76.4575 2.39155 96.5178 4.25597 107.744 17.8207C118.971 31.3855 117.118 51.5236 103.601 62.7937C90.085 74.0638 70.0287 72.2034 58.8021 58.6346C47.5754 45.0698 49.4287 24.9358 62.9451 13.6657Z" fill="#29105E"/>
<path d="M108.24 18.4541C108.415 18.6573 108.598 18.8565 108.768 19.0636C119.995 32.6324 118.142 52.7664 104.625 64.0365C91.1088 75.3067 71.0525 73.4462 59.8259 59.8775C59.6552 59.6703 59.4965 59.4552 59.3298 59.248C70.6477 72.2511 90.2914 73.8964 103.601 62.7976C116.911 51.6988 118.904 32.0109 108.24 18.4541Z" fill="#B1B1B1"/>
<path d="M112.566 13.8011C112.737 14.0082 112.895 14.2234 113.062 14.4345C99.5298 -1.24169 75.9377 -3.2535 59.9648 10.0643C43.9959 23.3821 41.6387 47.0378 54.5122 63.2637C54.3376 63.0606 54.1551 62.8614 53.9844 62.6542C40.5434 46.4163 42.7657 22.3144 58.941 8.82135C75.1162 -4.66774 99.1251 -2.43682 112.566 13.8011Z" fill="#333232"/>
</svg>
